<svg xmlns="http://www.w3.org/2000/svg" width="363.468" height="208.658" viewBox="0 0 363.468 208.658">
    <g id="undraw_Fingerprint_re_uf3f" transform="translate(0.001 0.001)">
        <path id="Path_6" data-name="Path 6" d="M144.213,247.334a4.883,4.883,0,0,1-6.221-5.737c2.841-11.818,13.643-40.72,52.994-52.876,17.046-5.266,33.393-5.355,48.567-.269a78.861,78.861,0,0,1,24.734,13.84,4.842,4.842,0,0,1,.793,6.8l-.03.037a4.956,4.956,0,0,1-6.906.784c-7.182-5.659-28.977-22.85-64.3-11.938-34.491,10.655-43.86,35.576-46.29,45.773a4.81,4.81,0,0,1-3.342,3.585Z" transform="translate(-137.872 -184.704)" fill="#7b88ac"/>
        <path id="Path_7" data-name="Path 7" d="M274.243,342.984a4.855,4.855,0,0,1-1.206.227c-30.743,1.656-50.3-23.884-51.105-24.949l-.149-.246c-.49-.76-12.325-18.767-7.115-33.068,2.393-6.538,7.686-11.127,15.776-13.626,7.524-2.324,13.681-1.637,18.921,2.105,4.3,3.049,7.051,7.6,9.72,11.986,5.551,9.117,8.953,13.755,19.505,11.079a11.222,11.222,0,0,0,7.785-7.62c2.661-7.678.3-18.146-5.937-26.065-8.061-10.274-30.619-27.339-58.451-18.741a51.083,51.083,0,0,0-28.126,20.869,53.626,53.626,0,0,0-8.6,28.113c-.108,17.83,14.5,41.288,14.643,41.5a4.833,4.833,0,0,1-1.536,6.66l-.045.028a4.949,4.949,0,0,1-6.778-1.517c-.66-1.073-16.263-26.084-16.138-46.692a61.928,61.928,0,0,1,85.813-56.194c10.616,4.379,20.441,11.629,26.937,19.906,8.3,10.566,11.22,24.4,7.443,35.191-2.518,7.2-7.731,12.162-14.659,13.937-18.056,4.593-25.129-6.971-30.288-15.407-5.3-8.648-8.227-12.7-17.383-9.874-5.027,1.553-8.124,4.041-9.427,7.617-1.772,4.887-.093,11.152,1.629,15.543l.054.137a39.7,39.7,0,0,0,10.073,14.65c7.083,6.541,20.233,15.867,36.993,14.967a4.84,4.84,0,0,1,5.131,4.531c0,.015,0,.031,0,.046a4.947,4.947,0,0,1-3.481,4.9Z" transform="translate(-160.646 -213.415)" fill="#7b88ac"/>
        <path id="Path_8" data-name="Path 8" d="M266.51,380.828a4.961,4.961,0,0,1-3.882-.406c-15.163-8.591-25.807-20.146-33.472-36.341l-.031-.1c-4.831-10.8-7.739-27.3-1.324-41.239,4.736-10.288,13.625-17.52,26.376-21.459,15.081-4.659,29.124-1.229,40.649,9.872A60.234,60.234,0,0,1,307.4,308.97a4.922,4.922,0,1,1-9.057,3.856,50.44,50.44,0,0,0-10.6-14.85c-8.884-8.452-19.211-10.951-30.73-7.393-9.954,3.075-16.809,8.511-20.318,16.16-5.06,11.009-2.455,24.755,1.326,33.215,6.759,14.323,16.133,24.484,29.479,32.031a4.819,4.819,0,0,1,1.83,6.565l-.037.065A4.943,4.943,0,0,1,266.51,380.828Z" transform="translate(-190.192 -242.077)" fill="#7b88ac"/>
        <circle id="Ellipse_9" data-name="Ellipse 9" cx="6.272" cy="6.272" r="6.272" transform="translate(71.642 77.793)" fill="#e6e6e6"/>
        <path id="Path_9" data-name="Path 9" d="M614.308,544.611a2.585,2.585,0,0,1-.387-.029,2.54,2.54,0,0,1-1.676-1.01L608.8,538.9a2.556,2.556,0,0,1,.54-3.574L638.794,513.6a2.556,2.556,0,0,1,3.575.54l3.445,4.671a2.557,2.557,0,0,1-.54,3.575l-29.455,21.724a2.538,2.538,0,0,1-1.512.5Z" transform="translate(-423.303 -383.959)" fill="#7b88ac"/>
        <path id="Path_10" data-name="Path 10" d="M669.1,510.2l-4.508-6.112a2.36,2.36,0,0,1,.5-3.3l17.249-15.113a2.36,2.36,0,0,1,3.3.5l8.244,9.848a2.359,2.359,0,0,1-.5,3.3L672.4,510.7A2.359,2.359,0,0,1,669.1,510.2Z" transform="translate(-457.179 -367.037)" fill="#2f2e41"/>
        <path id="Path_11" data-name="Path 11" d="M734.347,632.43h-5.8a2.559,2.559,0,0,1-2.556-2.556V581.5a2.559,2.559,0,0,1,2.556-2.556h5.8A2.559,2.559,0,0,1,736.9,581.5v48.376A2.559,2.559,0,0,1,734.347,632.43Z" transform="translate(-494.708 -423.906)" fill="#7b88ac"/>
        <path id="Path_12" data-name="Path 12" d="M763.539,632.43h-5.8a2.559,2.559,0,0,1-2.556-2.556V581.5a2.559,2.559,0,0,1,2.556-2.556h5.8a2.559,2.559,0,0,1,2.556,2.556v48.376A2.559,2.559,0,0,1,763.539,632.43Z" transform="translate(-512.42 -423.906)" fill="#7b88ac"/>
        <rect id="Rectangle_4" data-name="Rectangle 4" width="127.428" height="0.881" transform="translate(178.114 207.776)" fill="#3f3d56"/>
        <circle id="Ellipse_10" data-name="Ellipse 10" cx="21.047" cy="21.047" r="21.047" transform="translate(218.923 55.929)" fill="#7b88ac"/>
        <path id="Path_13" data-name="Path 13" d="M746.986,526.234,734.8,472.1V459.315a3.146,3.146,0,0,0-3.146-3.146H719.975v-8.224a3.146,3.146,0,0,0-3.146-3.146h-6.292a3.146,3.146,0,0,0-3.146,3.146v8.224H695.715a3.146,3.146,0,0,0-3.146,3.146V526.6a3.133,3.133,0,0,0,.23,1.177,3.081,3.081,0,0,0,2.9,2.441l49.324,1.645A3.158,3.158,0,0,0,746.986,526.234Z" transform="translate(-474.432 -342.516)" fill="#2f2e41"/>
        <path id="Path_14" data-name="Path 14" d="M740.229,378.8a7.237,7.237,0,0,1-4.164-.992,3.2,3.2,0,0,1-1.259-2.387,2.152,2.152,0,0,1,.732-1.768,2.778,2.778,0,0,1,2.626-.378L737.1,365.52l.78-.107,1.247,9.12-.651-.3a2.38,2.38,0,0,0-2.433.022,1.382,1.382,0,0,0-.453,1.139,2.416,2.416,0,0,0,.936,1.78,6.5,6.5,0,0,0,3.723.841Z" transform="translate(-500.056 -294.349)" fill="#2f2e41"/>
        <rect id="Rectangle_5" data-name="Rectangle 5" width="4.236" height="0.787" transform="translate(228.957 71.84)" fill="#2f2e41"/>
        <rect id="Rectangle_6" data-name="Rectangle 6" width="4.236" height="0.787" transform="translate(242.327 71.84)" fill="#2f2e41"/>
        <path id="Path_15" data-name="Path 15" d="M690.9,300.58c-3.739-2.266-5.5-6.564-5.5-10.815a15.587,15.587,0,0,1,5.51-11.906c3.851-3.33,8.979-4.96,13.988-5.374,6.061-.5,12.083.816,17.872,2.5,6.2,1.8,12.272,4.066,18.616,5.327a38.247,38.247,0,0,0,18.392-.425c5.595-1.633,11.274-4.518,17.25-4.018,5.161.432,9.081,3.867,11.718,8.11,5.235,8.425,5.648,19.733,13.177,26.749,3.255,3.033,7.5,4.407,11.733,5.435,4.064.985,8.4,1.616,12.128,3.609a10.478,10.478,0,0,1,5.794,10.757c-.711,5.228-4.431,9.727-8.526,12.8a36.073,36.073,0,0,1-30.435,5.948c-10.867-2.883-19.7-11.3-31.275-11.832-6.459-.294-12.818,1.465-19.275,1.173-4.476-.2-9.293-1.857-12.41-5.185A9.717,9.717,0,0,1,727,327.712c-.071-.749-1.251-.757-1.18,0,.443,4.7,3.9,8.175,8.034,10.085a22.163,22.163,0,0,0,6.874,1.892,43.783,43.783,0,0,0,9.528-.326,82.872,82.872,0,0,1,10.007-.773,28.6,28.6,0,0,1,8.981,1.6c5.547,1.9,10.544,5.059,15.844,7.518a38.808,38.808,0,0,0,16.181,3.891,37.835,37.835,0,0,0,15.875-3.4,30.133,30.133,0,0,0,12.573-10.07c2.864-4.217,4.368-9.75,1.791-14.471-2.02-3.7-5.874-5.573-9.759-6.726-4.307-1.278-8.808-1.862-13.025-3.453a17.931,17.931,0,0,1-5.966-3.579,22.417,22.417,0,0,1-4.535-6.257c-2.414-4.708-3.647-9.88-5.68-14.743-1.883-4.505-4.46-9.046-8.61-11.822a14.647,14.647,0,0,0-7.494-2.419,26.1,26.1,0,0,0-8.7,1.4c-2.973.905-5.875,2.035-8.871,2.868a32.119,32.119,0,0,1-9.7,1.159c-6.733-.219-13.238-2.22-19.612-4.236-11.167-3.533-23.586-7.315-34.813-1.869a18.286,18.286,0,0,0-9.642,10.357,16.275,16.275,0,0,0,.94,12.815,11.977,11.977,0,0,0,4.272,4.456.59.59,0,0,0,.6-1.019Z" transform="translate(-469.362 -237.207)" fill="#2f2e41"/>
        <path id="Path_16" data-name="Path 16" d="M771.061,553.683h-5.8a2.559,2.559,0,0,1-2.556-2.556V517.6a2.559,2.559,0,0,1,2.556-2.556h5.8a2.559,2.559,0,0,1,2.556,2.556v33.527a2.559,2.559,0,0,1-2.557,2.556Z" transform="translate(-516.984 -385.137)" fill="#7b88ac"/>
        <path id="Path_17" data-name="Path 17" d="M726.978,331.469a5.008,5.008,0,0,0,8.517,2.832l-.986-.26a8.339,8.339,0,0,0,14.61,1.729c.444-.617-.579-1.207-1.019-.6a7.161,7.161,0,0,1-12.454-1.447.6.6,0,0,0-.986-.26,3.837,3.837,0,0,1-6.545-2.311c-.105-.749-1.242-.43-1.138.314Z" transform="translate(-495.305 -273.304)" fill="#2f2e41"/>
        <path id="Path_33" data-name="Path 33" d="M611.055,538.932l-.123.083-2.284-3.369a2.356,2.356,0,0,0-3.272-.628h0l-7.138,4.839a2.356,2.356,0,0,0-.628,3.272l12.53,18.482a2.356,2.356,0,0,0,3.272.628h0l7.137-4.839a2.356,2.356,0,0,0,.628-3.272h0l-8.62-12.715.123-.083Z" transform="translate(-416.57 -397.01)" fill="#3f3d56"/>
        <path id="Path_34" data-name="Path 34" d="M607.493,537.417l-.9.611a.809.809,0,0,1,.005,1.343l-3.958,2.683a.809.809,0,0,1-1.245-.5l-.842.571a1.7,1.7,0,0,0-.454,2.365h0l12.11,17.863a1.7,1.7,0,0,0,2.365.454h0l6.942-4.706a1.7,1.7,0,0,0,.454-2.365h0l-12.11-17.863a1.7,1.7,0,0,0-2.365-.454h0Z" transform="translate(-418.148 -398.534)" fill="#fff"/>
    </g>
</svg>
