<svg xmlns="http://www.w3.org/2000/svg" width="297.146" height="216.113" viewBox="0 0 297.146 216.113">
    <g id="undraw_Internet_on_the_go_re_vben" transform="translate(0 0)">
        <path id="Path_11" data-name="Path 11" d="M517.426,187.93H290.679a1.455,1.455,0,0,0-1.454-1.43h-8.93a1.455,1.455,0,0,0-1.454,1.43h-2.187a1.455,1.455,0,0,0-1.454-1.43H266.27a1.455,1.455,0,0,0-1.454,1.43h-7.958a17.438,17.438,0,0,0-17.418,17.418v.171c-.027,0-.053-.008-.081-.008h-.2a1.456,1.456,0,0,0-1.456,1.456V224a1.456,1.456,0,0,0,1.456,1.456h.2c.028,0,.054-.007.081-.008V385.195a17.438,17.438,0,0,0,17.418,17.418H517.426a17.438,17.438,0,0,0,17.418-17.418V205.348A17.438,17.438,0,0,0,517.426,187.93ZM529.6,385.195a12.189,12.189,0,0,1-12.175,12.175H256.858a12.189,12.189,0,0,1-12.176-12.175V205.348a12.189,12.189,0,0,1,12.176-12.175H517.426A12.189,12.189,0,0,1,529.6,205.348Z" transform="translate(-237.699 -186.5)" fill="#ccc"/>
        <path id="Path_12" data-name="Path 12" d="M523.284,405.692H262.716A15.1,15.1,0,0,1,247.628,390.6V210.758a15.1,15.1,0,0,1,15.088-15.088H523.284a15.1,15.1,0,0,1,15.088,15.088V390.6a15.1,15.1,0,0,1-15.088,15.088Z" transform="translate(-243.556 -191.91)" fill="#e6e6e6"/>
        <path id="Path_13" data-name="Path 13" d="M540.177,411.023H279.45a3.325,3.325,0,0,1-3.321-3.321V228.631a3.324,3.324,0,0,1,3.321-3.321H540.177a3.324,3.324,0,0,1,3.321,3.321V407.7A3.325,3.325,0,0,1,540.177,411.023Z" transform="translate(-260.37 -209.395)" fill="#fff"/>
        <circle id="Ellipse_10" data-name="Ellipse 10" cx="1.247" cy="1.247" r="1.247" transform="translate(8.726 107.213)" fill="#fff"/>
        <path id="Path_14" data-name="Path 14" d="M410.521,283.092H355.132a16.407,16.407,0,0,0-16.388,16.388v5.006a.761.761,0,0,0-.962.743v3.85a.761.761,0,0,0,.962.743v5.829a.761.761,0,0,0-.962.743v9.625a.761.761,0,0,0,.962.743v3.519a.761.761,0,0,0-.962.743v9.625a.761.761,0,0,0,.962.743V443.032a16.407,16.407,0,0,0,16.388,16.388h55.388a16.407,16.407,0,0,0,16.388-16.388V299.48A16.407,16.407,0,0,0,410.521,283.092Zm12.923,159.941a12.938,12.938,0,0,1-12.923,12.923H355.132a12.938,12.938,0,0,1-12.923-12.923V299.48a12.938,12.938,0,0,1,12.923-12.923h55.388a12.938,12.938,0,0,1,12.923,12.923Z" transform="translate(-296.74 -243.482)" fill="#ccc"/>
        <path id="Path_15" data-name="Path 15" d="M414.121,460.1H358.732a14.865,14.865,0,0,1-14.848-14.848V301.7a14.865,14.865,0,0,1,14.848-14.848h55.388A14.865,14.865,0,0,1,428.969,301.7V445.247A14.865,14.865,0,0,1,414.121,460.1Z" transform="translate(-300.34 -245.697)" fill="#e6e6e6"/>
        <path id="Path_16" data-name="Path 16" d="M420.474,461.109H362.349a10.026,10.026,0,0,1-10.014-10.014v-148.6a10.026,10.026,0,0,1,10.014-10.014h7.58a1.657,1.657,0,0,1,1.655,1.655,4.9,4.9,0,0,0,4.89,4.89h29.105a4.9,4.9,0,0,0,4.89-4.89,1.657,1.657,0,0,1,1.655-1.655h8.35a10.026,10.026,0,0,1,10.014,10.014v148.6A10.026,10.026,0,0,1,420.474,461.109Z" transform="translate(-305.325 -249.02)" fill="#fff"/>
        <path id="Path_17" data-name="Path 17" d="M442.651,298.48h-6.93a.77.77,0,1,1,0-1.54h6.93a.77.77,0,0,1,0,1.54Z" transform="translate(-354.062 -251.651)" fill="#fff"/>
        <circle id="Ellipse_11" data-name="Ellipse 11" cx="0.385" cy="0.385" r="0.385" transform="translate(93.017 45.866)" fill="#fff"/>
        <path id="Path_18" data-name="Path 18" d="M466.415,388.781l.08,1.791a151.418,151.418,0,0,1,31.046,2.271v-1.816A152.861,152.861,0,0,0,466.415,388.781Z" transform="translate(-372.623 -305.767)" fill="#ccc"/>
        <path id="Path_19" data-name="Path 19" d="M438.2,400.8q-.107,1.028-.174,2.069-.142,2.047-.142,4.126A59.932,59.932,0,0,0,480.708,464.4V349.577A59.9,59.9,0,0,0,438.2,400.8Z" transform="translate(-355.79 -282.702)" fill="#7b88ac"/>
        <circle id="Ellipse_12" data-name="Ellipse 12" cx="1.181" cy="1.181" r="1.181" transform="translate(51.341 81.023)" fill="#ccc"/>
        <circle id="Ellipse_13" data-name="Ellipse 13" cx="2.332" cy="2.332" r="2.332" transform="translate(47.673 126.077)" fill="#ccc"/>
        <circle id="Ellipse_14" data-name="Ellipse 14" cx="1.689" cy="1.689" r="1.689" transform="translate(92.234 65.642)" fill="#ccc"/>
        <circle id="Ellipse_15" data-name="Ellipse 15" cx="1.348" cy="1.348" r="1.348" transform="translate(54.147 160)" fill="#ccc"/>
        <circle id="Ellipse_16" data-name="Ellipse 16" cx="1.459" cy="1.459" r="1.459" transform="translate(81.255 178.644)" fill="#ccc"/>
        <path id="Path_20" data-name="Path 20" d="M294.646,76.726h-2.88v-2.88h-1.545v2.88H287.34v1.546h2.881v2.88h1.545v-2.88h2.88Z" transform="translate(-169.507 -43.563)" fill="#ccc"/>
        <circle id="Ellipse_17" data-name="Ellipse 17" cx="5.032" cy="5.032" r="5.032" transform="translate(99.184 109.195)" opacity="0.1"/>
        <circle id="Ellipse_18" data-name="Ellipse 18" cx="5.032" cy="5.032" r="5.032" transform="translate(101.7 144.649)" opacity="0.1"/>
        <path id="Path_21" data-name="Path 21" d="M416.767,424.053c-6.175-4.146-10.774-8.237-13.67-12.158s-3.919-7.446-3.062-10.5,3.574-5.542,8.075-7.382,10.568-2.95,18-3.282l-.08-1.791c-15.911.713-25.756,4.965-27.719,11.972s4.236,15.756,17.459,24.635c10.783,7.241,25.225,13.927,41.386,19.223v-1.887C441.374,437.663,427.294,431.122,416.767,424.053Z" transform="translate(-332.235 -305.92)" fill="#ccc"/>
        <path id="Path_22" data-name="Path 22" d="M440.525,475.955q-1.095-.736-2.125-1.47-.107,1.028-.174,2.069.638.446,1.3.889c10.783,7.241,25.225,13.928,41.386,19.223v-1.887C465.133,489.565,451.053,483.024,440.525,475.955Z" transform="translate(-355.994 -356.388)" opacity="0.1"/>
        <path id="Path_23" data-name="Path 23" d="M576.72,400.707c-7.052-1.977-14.042-3.587-20.824-4.826V397.7c6.625,1.222,13.451,2.8,20.34,4.73,21.933,6.148,41.78,15.107,54.452,24.579l1.074-1.436C618.919,415.977,598.857,406.912,576.72,400.707Z" transform="translate(-425.409 -310.018)" fill="#ccc"/>
        <path id="Path_24" data-name="Path 24" d="M629.371,403.439A59.924,59.924,0,0,0,555.9,345.1V461.771a59.915,59.915,0,0,0,67.421-32.063q.464-.945.891-1.908a59.667,59.667,0,0,0,5.164-24.361Z" transform="translate(-425.409 -279.147)" fill="#7b88ac"/>
        <circle id="Ellipse_19" data-name="Ellipse 19" cx="0.686" cy="0.686" r="0.686" transform="translate(144.976 52.235)" fill="#f2f2f2"/>
        <circle id="Ellipse_20" data-name="Ellipse 20" cx="1.554" cy="1.554" r="1.554" transform="translate(190.542 55.484)" fill="#ccc"/>
        <circle id="Ellipse_21" data-name="Ellipse 21" cx="2.524" cy="2.524" r="2.524" transform="translate(244.699 119.023)" fill="#ccc"/>
        <circle id="Ellipse_22" data-name="Ellipse 22" cx="1.083" cy="1.083" r="1.083" transform="translate(226.406 80.159)" fill="#ccc"/>
        <circle id="Ellipse_23" data-name="Ellipse 23" cx="1.083" cy="1.083" r="1.083" transform="translate(222.617 115.347)" fill="#ccc"/>
        <path id="Path_25" data-name="Path 25" d="M466.593,458.266h-1.809v-1.808h-.97v1.808h-1.808v.97h1.808v1.808h.97v-1.808h1.809Z" transform="translate(-272.546 -269.273)" fill="#ccc"/>
        <path id="Path_26" data-name="Path 26" d="M570.037,436.352h-1.352V435h-.726v1.352h-1.352v.726h1.352v1.352h.726v-1.352h1.352Z" transform="translate(-334.253 -256.615)" fill="#ccc"/>
        <circle id="Ellipse_24" data-name="Ellipse 24" cx="5.032" cy="5.032" r="5.032" transform="translate(139.944 72.368)" opacity="0.1"/>
        <circle id="Ellipse_25" data-name="Ellipse 25" cx="5.032" cy="5.032" r="5.032" transform="translate(139.944 116.972)" opacity="0.1"/>
        <circle id="Ellipse_26" data-name="Ellipse 26" cx="5.032" cy="5.032" r="5.032" transform="translate(166.935 89.981)" opacity="0.1"/>
        <circle id="Ellipse_27" data-name="Ellipse 27" cx="5.032" cy="5.032" r="5.032" transform="translate(183.633 124.063)" opacity="0.1"/>
        <path id="Path_27" data-name="Path 27" d="M643.064,479.549c-2.363-3.626-6.166-7.412-11.3-11.253l-1.074,1.436c9.984,7.464,14.635,14.6,13.1,20.09-.857,3.058-3.574,5.542-8.075,7.382s-10.568,2.949-18,3.282q-2.368.106-4.86.106c-14.538,0-32.068-2.692-49.991-7.716q-3.525-.988-6.964-2.067v1.877q3.2,1,6.48,1.916c18.079,5.067,35.778,7.782,50.484,7.782,1.683,0,3.33-.036,4.931-.107,15.911-.713,25.755-4.965,27.719-11.972C646.42,487.055,645.6,483.436,643.064,479.549Z" transform="translate(-425.409 -352.737)" fill="#ccc"/>
        <path id="Path_28" data-name="Path 28" d="M617.71,536.37q-2.368.106-4.861.106c-14.537,0-32.069-2.691-49.991-7.715q-3.525-.988-6.964-2.067v1.878q3.2.995,6.479,1.916c18.08,5.067,35.778,7.781,50.484,7.781,1.683,0,3.331-.036,4.932-.108q2.9-.129,5.526-.414.464-.945.891-1.908Q621.158,536.214,617.71,536.37Z" transform="translate(-425.409 -387.187)" opacity="0.1"/>
        <circle id="Ellipse_28" data-name="Ellipse 28" cx="6.561" cy="6.561" r="6.561" transform="translate(165.386 67.458)" fill="#fff"/>
        <path id="Path_29" data-name="Path 29" d="M643.558,343.45a9.378,9.378,0,0,0-9.378,9.378c0,5.179,9.378,22.188,9.378,22.188s9.378-17.008,9.378-22.187a9.378,9.378,0,0,0-9.378-9.379Zm0,13.953a4.346,4.346,0,1,1,4.346-4.346,4.346,4.346,0,0,1-4.346,4.346Z" transform="translate(-471.59 -279.088)" fill="#3f3d56"/>
        <circle id="Ellipse_29" data-name="Ellipse 29" cx="6.561" cy="6.561" r="6.561" transform="translate(138.321 91.243)" fill="#fff"/>
        <path id="Path_30" data-name="Path 30" d="M577.558,401.45a9.378,9.378,0,0,0-9.378,9.378c0,5.179,9.378,22.188,9.378,22.188s9.378-17.008,9.378-22.187a9.378,9.378,0,0,0-9.378-9.379Zm0,13.953a4.346,4.346,0,1,1,4.346-4.346,4.346,4.346,0,0,1-4.346,4.346Z" transform="translate(-432.656 -313.303)" fill="#3f3d56"/>
        <circle id="Ellipse_30" data-name="Ellipse 30" cx="6.561" cy="6.561" r="6.561" transform="translate(138.321 49.005)" fill="#fff"/>
        <path id="Path_31" data-name="Path 31" d="M577.558,298.45a9.378,9.378,0,0,0-9.378,9.378c0,5.179,9.378,22.188,9.378,22.188s9.378-17.008,9.378-22.187a9.378,9.378,0,0,0-9.378-9.379Zm0,13.953a4.346,4.346,0,1,1,4.346-4.346,4.346,4.346,0,0,1-4.346,4.346Z" transform="translate(-432.656 -252.542)" fill="#ccc"/>
        <circle id="Ellipse_31" data-name="Ellipse 31" cx="6.561" cy="6.561" r="6.561" transform="translate(182.199 99.855)" fill="#fff"/>
        <path id="Path_32" data-name="Path 32" d="M684.558,422.45a9.378,9.378,0,0,0-9.378,9.378c0,5.179,9.378,22.188,9.378,22.188s9.378-17.008,9.378-22.187a9.378,9.378,0,0,0-9.378-9.379Zm0,13.953a4.346,4.346,0,1,1,4.346-4.346,4.346,4.346,0,0,1-4.346,4.346Z" transform="translate(-495.777 -325.691)" fill="#ccc"/>
        <circle id="Ellipse_32" data-name="Ellipse 32" cx="6.561" cy="6.561" r="6.561" transform="translate(97.723 85.092)" fill="#fff"/>
        <path id="Path_33" data-name="Path 33" d="M478.558,386.45a9.378,9.378,0,0,0-9.378,9.378c0,5.18,9.378,22.188,9.378,22.188s9.378-17.008,9.378-22.187a9.378,9.378,0,0,0-9.378-9.379Zm0,13.953a4.346,4.346,0,1,1,4.346-4.346,4.346,4.346,0,0,1-4.346,4.346Z" transform="translate(-374.254 -304.454)" fill="#ccc"/>
        <circle id="Ellipse_33" data-name="Ellipse 33" cx="6.561" cy="6.561" r="6.561" transform="translate(100.183 120.769)" fill="#fff"/>
        <path id="Path_34" data-name="Path 34" d="M484.558,473.45a9.378,9.378,0,0,0-9.378,9.378c0,5.179,9.378,22.188,9.378,22.188s9.378-17.008,9.378-22.187a9.378,9.378,0,0,0-9.378-9.379Zm0,13.953a4.346,4.346,0,1,1,4.346-4.346,4.346,4.346,0,0,1-4.346,4.346Z" transform="translate(-377.793 -355.777)" fill="#3f3d56"/>
    </g>
</svg>
