<svg xmlns="http://www.w3.org/2000/svg" width="274.559" height="205.539" viewBox="0 0 274.559 205.539">
    <g id="undraw_Select_re_3kbd" transform="translate(0 0)">
        <path id="Path_2" data-name="Path 2" d="M631.925,134.176H630.8V103.3a17.872,17.872,0,0,0-17.872-17.872H547.5A17.872,17.872,0,0,0,529.631,103.3V272.7A17.872,17.872,0,0,0,547.5,290.576h65.422A17.872,17.872,0,0,0,630.8,272.7V156.156h1.127Z" transform="translate(-412.188 -85.424)" fill="#e6e6e6"/>
        <path id="Path_3" data-name="Path 3" d="M639.558,115.266V284.424a13.348,13.348,0,0,1-13.347,13.347H560.474a13.348,13.348,0,0,1-13.347-13.347V115.266a13.348,13.348,0,0,1,13.347-13.347h7.975a6.344,6.344,0,0,0,5.872,8.736H611.8a6.344,6.344,0,0,0,5.872-8.736h8.538a13.348,13.348,0,0,1,13.347,13.347Z" transform="translate(-424.752 -97.27)" fill="#fff"/>
        <path id="Path_4" data-name="Path 4" d="M248.047,599.475a2.118,2.118,0,0,1-1.391-.519l-3.135-2.734a2.119,2.119,0,0,1-.206-2.983L266.11,567.1a1.688,1.688,0,0,1,.145-.151,2.113,2.113,0,0,1,2.836-.051l3.137,2.734a2.113,2.113,0,0,1,.719,1.449h0a2.111,2.111,0,0,1-.517,1.534L249.64,598.753a2.114,2.114,0,0,1-1.593.722Z" transform="translate(-206.209 -430.804)" fill="#7b88ac"/>
        <path id="Path_5" data-name="Path 5" d="M399.717,526.665a2.191,2.191,0,0,1-.648-.1,2.108,2.108,0,0,1-1.236-1.045l-1.906-3.7a2.106,2.106,0,0,1,.481-2.553,2,2,0,0,1,.428-.3l30.822-15.89a2.119,2.119,0,0,1,2.848.909l1.906,3.7a2.119,2.119,0,0,1-.91,2.848l-30.821,15.89A2.1,2.1,0,0,1,399.717,526.665Z" transform="translate(-316.003 -385.183)" fill="#7b88ac"/>
        <path id="Path_6" data-name="Path 6" d="M397.847,546.759a2.138,2.138,0,0,1-1.9-1.169l-1.866-3.718a2.105,2.105,0,0,1-.163-1.453c.008-.037.021-.078.033-.118l.011-.037c.033-.1.066-.235.1-.4l.022-.093a3.568,3.568,0,0,1,.655-1.654.613.613,0,0,1,.144-.1l13.532-8.2a2.112,2.112,0,0,1,2.857.929l3.417,7.043a2.117,2.117,0,0,1-.944,2.835l-14.985,5.916A2.029,2.029,0,0,1,397.847,546.759Z" transform="translate(-314.689 -404.38)" fill="#2f2e41"/>
        <circle id="Ellipse_8" data-name="Ellipse 8" cx="15.086" cy="15.086" r="15.086" transform="translate(57.938 92.687)" fill="#7b88ac"/>
        <path id="Path_7" data-name="Path 7" d="M342.639,713.552h-4.161a2.116,2.116,0,0,1-2.114-2.114V676.2a2.117,2.117,0,0,1,2.114-2.114h4.161a2.062,2.062,0,0,1,.765.145,2.1,2.1,0,0,1,1.343,1.871.554.554,0,0,1,.006.1v35.239a2.116,2.116,0,0,1-2.114,2.114Z" transform="translate(-273.4 -508.149)" fill="#7b88ac"/>
        <path id="Path_8" data-name="Path 8" d="M381.836,690.147q-.03-.049-.065-.1a1.963,1.963,0,0,0-.214-.381l-7.092-9.922-5.844-8.172h-9.968l.7.984,1.254,1.756,3.887,5.435,8.33,11.65-7.721,15.509c-.316.631.223,1.539,1.2,2.024l3.724,1.855a2.737,2.737,0,0,0,1.192.3,1.209,1.209,0,0,0,1.144-.564l9.6-19.281A1.117,1.117,0,0,0,381.836,690.147Z" transform="translate(-289.407 -506.347)" fill="#7b88ac"/>
        <path id="Path_9" data-name="Path 9" d="M300.806,573.13a2.119,2.119,0,0,1-1.475-.607l-5.645-5.414a2.093,2.093,0,0,1-.608-1.207,1.824,1.824,0,0,1-.024-.287,1.919,1.919,0,0,1,.025-.326,2.081,2.081,0,0,1,.586-1.175l12.005-10.378c.325-.335,1.15-.266,1.878-.2l.11.009a3.966,3.966,0,0,0,.4.023c.05.005.108,0,.161.005a2.128,2.128,0,0,1,1.342.6l2.963,2.921a2.117,2.117,0,0,1,.021,2.99l-10.213,12.4a2.108,2.108,0,0,1-1.529.646Z" transform="translate(-242.299 -421.541)" fill="#2f2e41"/>
        <path id="Path_10" data-name="Path 10" d="M369.892,465.14l-.016-.564a4.663,4.663,0,0,0,2.668-.6,1.733,1.733,0,0,0,.671-1.276.991.991,0,0,0-.325-.816,1.708,1.708,0,0,0-1.744-.015l-.466.214.895-6.537.559.077-.761,5.561a1.99,1.99,0,0,1,1.883.271,1.542,1.542,0,0,1,.524,1.266,2.292,2.292,0,0,1-.9,1.712A5.189,5.189,0,0,1,369.892,465.14Z" transform="translate(-297.466 -351.211)" fill="#2f2e41"/>
        <rect id="Rectangle_2" data-name="Rectangle 2" width="3.036" height="0.564" transform="translate(77.429 104.888)" fill="#2f2e41"/>
        <rect id="Rectangle_3" data-name="Rectangle 3" width="3.036" height="0.564" transform="translate(67.845 104.888)" fill="#2f2e41"/>
        <path id="Path_11" data-name="Path 11" d="M347.746,579H320.966c-1.027,0-1.832-1.65-1.832-3.757V548.835a15.231,15.231,0,0,1,10.633-14.517,2.643,2.643,0,0,1-.062-.565,2.681,2.681,0,0,1,2.678-2.678h3.946a2.681,2.681,0,0,1,2.678,2.678,2.641,2.641,0,0,1-.063.566,15.121,15.121,0,0,1,4.175,2.068c.263.183.522.379.769.581a15.184,15.184,0,0,1,4.8,6.731c.155.43.293.875.41,1.323h0a15.325,15.325,0,0,1,.481,3.812v26.4c0,2.054-.777,3.692-1.773,3.75A.211.211,0,0,1,347.746,579Z" transform="translate(-261.027 -405.452)" fill="#2f2e41"/>
        <path id="Path_12" data-name="Path 12" d="M335.678,704.2H324.966a1.834,1.834,0,0,1-1.832-1.832v-8.457a1.834,1.834,0,0,1,1.832-1.832h10.712a1.834,1.834,0,0,1,1.832,1.832v8.457A1.834,1.834,0,0,1,335.678,704.2Z" transform="translate(-263.9 -521.068)" fill="#2f2e41"/>
        <path id="Path_13" data-name="Path 13" d="M378.879,696.72a1.835,1.835,0,0,1-1.719-1.194l-2.945-7.927a1.835,1.835,0,0,1,1.079-2.356l10.041-3.731a1.835,1.835,0,0,1,2.356,1.079l2.945,7.927a1.835,1.835,0,0,1-1.079,2.356l-10.041,3.731a1.823,1.823,0,0,1-.636.115Z" transform="translate(-300.499 -513.4)" fill="#2f2e41"/>
        <path id="Path_14" data-name="Path 14" d="M321.236,393.947c2.8-1.616,6.186-.376,9.074.3,3.086.724,6.348.881,9.256-.582a8.168,8.168,0,0,0,4.573-6.37,6.256,6.256,0,0,0-3.683-6.276,5.153,5.153,0,0,0-6.582,2.864l.773-.1c-2.991-3.927-6.678-7.979-11.823-8.743a9.59,9.59,0,0,0-6.744,1.287,9.934,9.934,0,0,0-3.741,5.221,28.629,28.629,0,0,0-1.175,7.515c-.032.544.814.542.846,0,.231-3.964.607-8.745,3.848-11.515a8.3,8.3,0,0,1,6.1-1.764,12.435,12.435,0,0,1,6.292,2.491,28.564,28.564,0,0,1,5.669,5.935.43.43,0,0,0,.773-.1,4.307,4.307,0,0,1,5.289-2.365,5.378,5.378,0,0,1,3.315,5.552,7.4,7.4,0,0,1-4.485,5.8c-2.757,1.247-5.778.943-8.631.254-3.031-.731-6.454-1.816-9.369-.131a.423.423,0,0,0,.427.73Z" transform="translate(-255.304 -293.308)" fill="#2f2e41"/>
        <path id="Path_15" data-name="Path 15" d="M583.927,157.575a9.02,9.02,0,1,0,0,18.041h0a9.02,9.02,0,1,0,0-18.041Z" transform="translate(-444.701 -137.237)" fill="#f2f2f2"/>
        <path id="Path_16" data-name="Path 16" d="M712.858,205.086H665.5a2.255,2.255,0,1,1,0-4.51h47.357a2.255,2.255,0,0,1,0,4.51Z" transform="translate(-508.138 -168.116)" fill="#f2f2f2"/>
        <path id="Path_17" data-name="Path 17" d="M680.441,171.086H665.5a2.255,2.255,0,1,1,0-4.51h14.94a2.255,2.255,0,1,1,0,4.51Z" transform="translate(-508.138 -143.701)" fill="#f2f2f2"/>
        <path id="Path_18" data-name="Path 18" d="M583.927,291.575a9.02,9.02,0,1,0,0,18.041h0a9.02,9.02,0,1,0,0-18.041Z" transform="translate(-444.701 -233.464)" fill="#f2f2f2"/>
        <path id="Path_19" data-name="Path 19" d="M712.858,339.086H665.5a2.255,2.255,0,1,1,0-4.51h47.357a2.255,2.255,0,0,1,0,4.51Z" transform="translate(-508.138 -264.343)" fill="#f2f2f2"/>
        <path id="Path_20" data-name="Path 20" d="M680.441,305.086H665.5a2.255,2.255,0,1,1,0-4.51h14.94a2.255,2.255,0,1,1,0,4.51Z" transform="translate(-508.138 -239.928)" fill="#f2f2f2"/>
        <path id="Path_21" data-name="Path 21" d="M583.927,559.576a9.02,9.02,0,1,0,0,18.041h0a9.02,9.02,0,1,0,0-18.041Z" transform="translate(-444.701 -425.919)" fill="#f2f2f2"/>
        <path id="Path_22" data-name="Path 22" d="M712.858,607.086H665.5a2.255,2.255,0,1,1,0-4.51h47.357a2.255,2.255,0,0,1,0,4.51Z" transform="translate(-508.138 -456.797)" fill="#f2f2f2"/>
        <path id="Path_23" data-name="Path 23" d="M680.441,573.086H665.5a2.255,2.255,0,1,1,0-4.51h14.94a2.255,2.255,0,1,1,0,4.51Z" transform="translate(-508.138 -432.382)" fill="#f2f2f2"/>
        <path id="Path_24" data-name="Path 24" d="M583.927,693.576a9.02,9.02,0,1,0,0,18.041h0a9.02,9.02,0,1,0,0-18.041Z" transform="translate(-444.701 -522.146)" fill="#f2f2f2"/>
        <path id="Path_25" data-name="Path 25" d="M712.858,741.086H665.5a2.255,2.255,0,1,1,0-4.51h47.357a2.255,2.255,0,0,1,0,4.51Z" transform="translate(-508.138 -553.024)" fill="#f2f2f2"/>
        <path id="Path_26" data-name="Path 26" d="M680.441,707.086H665.5a2.255,2.255,0,1,1,0-4.51h14.94a2.255,2.255,0,1,1,0,4.51Z" transform="translate(-508.138 -528.609)" fill="#f2f2f2"/>
        <path id="Path_27" data-name="Path 27" d="M615.037,421.832H506.228a4.656,4.656,0,0,1-4.651-4.651V382.227a4.656,4.656,0,0,1,4.651-4.651H615.037a4.656,4.656,0,0,1,4.651,4.651v34.954A4.656,4.656,0,0,1,615.037,421.832Z" transform="translate(-392.042 -295.222)" fill="#fff"/>
        <path id="Path_28" data-name="Path 28" d="M583.927,424.076a9.02,9.02,0,0,0,0,18.041h0a9.02,9.02,0,1,0,0-18.041Z" transform="translate(-444.701 -328.614)" fill="#7b88ac"/>
        <path id="Path_29" data-name="Path 29" d="M712.858,471.586H665.5a2.255,2.255,0,1,1,0-4.51h47.357a2.255,2.255,0,0,1,0,4.51Z" transform="translate(-508.138 -359.493)" fill="#ccc"/>
        <path id="Path_30" data-name="Path 30" d="M680.441,437.586H665.5a2.255,2.255,0,1,1,0-4.51h14.94a2.255,2.255,0,1,1,0,4.51Z" transform="translate(-508.138 -335.077)" fill="#ccc"/>
        <path id="Path_31" data-name="Path 31" d="M615.037,421.832H506.228a4.656,4.656,0,0,1-4.651-4.651V382.227a4.656,4.656,0,0,1,4.651-4.651H615.037a4.656,4.656,0,0,1,4.651,4.651v34.954A4.656,4.656,0,0,1,615.037,421.832ZM506.228,377.858a4.374,4.374,0,0,0-4.369,4.369v34.954a4.374,4.374,0,0,0,4.369,4.369H615.037a4.374,4.374,0,0,0,4.369-4.369V382.227a4.374,4.374,0,0,0-4.369-4.369Z" transform="translate(-392.042 -295.222)" fill="#3f3d56"/>
        <path id="Path_395" data-name="Path 395" d="M594.744,448.914a1.1,1.1,0,0,1-.659-.219l-.012-.009-2.481-1.9a1.1,1.1,0,1,1,1.341-1.75l1.607,1.232,3.8-4.953a1.1,1.1,0,0,1,1.545-.2h0l-.024.033.024-.033a1.1,1.1,0,0,1,.2,1.545l-4.466,5.824a1.1,1.1,0,0,1-.877.43Z" transform="translate(-456.373 -340.686)" fill="#fff"/>
        <path id="Path_32" data-name="Path 32" d="M387.277,813.14H113.282a.282.282,0,1,1,0-.564H387.277a.282.282,0,1,1,0,.564Z" transform="translate(-113 -607.601)" fill="#ccc"/>
    </g>
</svg>
